<svg width="1024" height="1024" viewBox="0 0 1024 1024" fill="none" xmlns="http://www.w3.org/2000/svg">
<path d="M309.977 170.096C319.023 169.79 323.257 170.925 328.579 178.508C331.884 179.123 335.667 179.659 338.472 181.501C351.288 189.921 341.541 206.297 335.687 214.969C344.851 213.001 355.626 212.172 360.309 221.514C362.54 225.465 369.554 238.391 367.518 242.837C359.14 261.131 342.766 261.839 327.288 257.1C337.487 271.787 338.227 286.517 318.38 294.448C315.115 295.752 312.185 293.944 309.383 292.271C307.476 292.523 304.455 292.98 302.572 292.975C297.789 292.952 293.222 290.98 289.926 287.513C284.043 281.287 284.168 273.927 284.45 266.076C280.681 269.103 271.889 275.687 269.491 279.639C250.676 310.645 234.835 355.048 230.005 390.19C239.316 375.648 245.058 359.792 255.02 346.267C267.808 328.907 291.312 320.739 311.773 317.375C313.862 317.031 317.308 316.621 318.994 317.978C318.84 319.356 317.71 321.156 316.584 321.836C301.318 331.052 290.826 345.023 277.611 356.06C261.309 369.674 246.129 373.809 233.703 392.262C225.516 404.62 226.458 413.266 225.222 427.776C224.997 430.417 224.27 440.149 221.736 441.125C221.616 441.016 221.481 440.921 221.377 440.797C216.841 435.43 223.633 398.231 224.915 390.698C227.081 377.975 228.743 364.888 223.25 352.628C221.397 348.491 218.805 344.603 216.612 340.629C213.179 334.407 210.287 327.818 208.77 320.855C205.63 306.441 207.128 291.204 204.375 276.565C203.607 272.483 198.908 262.131 199.294 259.786L200.137 259.243C208.04 260.209 216.995 274.252 220.717 280.377C230.225 296.027 235.02 314.578 231.573 332.786C229.224 345.197 227.89 351.008 231.023 363.467C239.677 331.255 249.292 304.08 266.62 275.086C257.603 272.88 252.932 269.698 253.091 260.015C249.173 259.382 244.042 258.499 241.765 255.071C231.228 239.209 244.467 223.705 261.277 225.372L265.108 225.749C263.567 225.198 262.035 224.618 260.516 224.009C253.028 220.941 247.069 215.021 243.951 207.555C238.458 194.198 243.387 184.396 256.788 179.582C262.623 169.675 266.644 169.891 276.563 173.901C284.869 177.258 290.35 180.859 293.956 189.319C296.476 180.704 301.552 173.74 309.977 170.096ZM291.331 231.895C289.066 229.945 286.508 227.78 284.389 225.687L286.349 224.769C287.991 225.751 289.85 226.741 291.534 227.685C289.56 224.087 288.556 222.071 287.043 218.277C286.109 210.957 282.997 207.261 281.723 200.985C284.974 206.34 287.742 210.459 289.718 216.454C290.906 219.249 291.848 221.992 293.721 224.346L294.504 224.628C296.143 221.309 291.055 197.54 289.965 193.085C287.531 183.139 277.402 178.619 268.846 174.801C265.838 176.386 265.277 176.839 262.688 178.995C262.476 181.197 262.567 182.734 261.353 184.546C259.311 185.317 258.845 183.725 255.718 184.948C254.624 186.134 254.715 186.166 254.137 187.708C251.658 188.965 249.089 187.018 247.605 191.79C246.044 196.811 247.924 204.611 250.375 209.022C256.177 219.465 265.268 222.195 275.592 226.191C281.293 228.398 285.339 230.211 291.331 231.895ZM226.424 334.761C233.318 309.562 221.769 289.974 208.344 269.887C209.275 277.57 209.998 285.277 210.512 292.999C211.849 315.163 211.133 322.455 222.788 342.54C221.921 334.707 220.965 326.756 220.205 318.922L221.138 319.181C221.851 320.446 222.92 326.307 223.348 328.206L223.665 328.353C223.949 324.122 222.038 320.139 223.84 317.303C224.926 321.878 225.832 329.985 226.424 334.761ZM248.242 366.173L248.726 365.662C255.242 358.716 266.73 341.537 276.102 338.805L277.163 339.053C277.823 340.308 277.79 339.699 277.696 340.911C269.006 348.943 257.861 359.855 250.745 369.441C259.58 363.985 270.57 356.737 278.09 349.62C287.766 340.464 294.468 332.007 305.638 324.211L305.665 323.592C305.078 323.587 304.526 323.546 303.956 323.628C276.296 329.425 260.691 341.022 248.242 366.173ZM301.424 224.838C306.185 222.547 315.034 215.311 318.244 210.965L318.843 210.167C318.96 210.005 319.077 209.843 319.194 209.681L319.763 209.987C315.41 217.74 310.555 221.916 304.114 227.915C305.915 227.505 312.944 225.991 313.918 225.361C321.3 220.581 332.393 212.686 336.557 205.111C344.35 190.935 339.987 185.35 326.456 181.625C321.702 180.316 321.849 173.548 312.548 174.005C297.552 183.155 296.033 193.101 297.033 209.526C297.277 213.525 297.163 217.577 297.668 221.621L298.204 222.379C301.004 220.16 302.214 208.307 304.257 205.654C304.582 207.78 302.113 222.416 301.424 224.838ZM307.523 241.338L307.265 241.515L307.271 242.165C311.365 245.912 321.256 250.384 326.602 252.802C330.557 254.591 335.417 254.377 339.541 254.717C353.423 255.862 355.688 251.908 362.738 241.68C361.72 237.015 358.947 228.848 356.32 224.821C352.1 218.353 338.647 218.482 331.986 220.242C327.722 221.369 322.565 225.944 318.201 227.559C315.267 228.645 309.9 228.908 307.489 230.676C309.744 231.875 327.139 231.275 330.604 230.955L331.603 230.858L331.267 231C325.12 233.651 313.3 234.694 306.726 236.041C305.459 236.3 305.506 236.562 305.076 237.359C306.284 238.608 306.658 238.3 308.759 238.738L307.523 241.338ZM288.64 240.705C289.278 239.584 289.114 240.008 289.336 238.753C288.107 237.467 287.949 237.823 285.784 237.392L286.02 235.58C287.944 235.048 288.17 235.355 289.165 234.094C287.95 232.974 283.445 232.055 281.57 231.745C269.373 229.726 242.648 224.764 242.424 244.275C242.354 250.365 251.963 255.214 256.607 258.083C257.671 261.583 259.274 267.704 262.926 269.062C278.921 275.015 289.768 251.954 292.516 241.408L292.1 240.725L289.543 242.429L288.64 240.705ZM296.591 243.416L295.985 242.523L295.303 242.781C293.101 246.406 293.859 250.078 292.452 253.602C286.94 267.407 285.128 287.362 305.199 288.681C311.547 289.098 310.945 287.609 317.874 290.062C329.977 281.008 333.962 275.552 324.879 261.02C322.099 256.57 306.24 243.473 301.707 242.569C303.917 246.401 312.891 258.989 311.569 262.767C309.988 261.058 300.768 244.422 299.696 242.076L298.519 243.124C300.031 251.065 301.987 259.615 303.839 267.506C300.585 260.898 296.476 250.913 296.591 243.416ZM297.384 228.959C295.411 231.679 295.779 233.478 298.514 235.702C299.242 234.539 300.042 233.456 299.872 231.99C299.752 230.901 299.132 229.929 298.193 229.363C297.923 229.229 297.654 229.094 297.384 228.959Z" fill="#F6EFE4"/>
<path d="M269.625 197.241C273.312 199.065 280.729 210.737 281.972 214.992C279.273 214.803 271.064 200.251 269.625 197.241Z" fill="#F6EFE4"/>
<path d="M313.212 200.354L313.671 201.223C313.013 205.63 312.149 210.294 308.952 213.574C308.498 213.034 308.506 212.899 308.198 212.247C308.892 209.494 311.886 203.018 313.212 200.354Z" fill="#F6EFE4"/>
<path d="M321.28 236.099C325.806 238.011 334.22 238.104 336.336 239.292L335.896 239.92C332.799 240.011 321.472 240.238 320.203 237.378L321.28 236.099Z" fill="#F6EFE4"/>
<path d="M220.206 318.922C219.638 315.759 215.351 295.354 215.528 294.547C216.826 293.746 216.148 293.829 217.548 294.013C220.781 297.296 222.899 312.303 223.84 317.303C222.039 320.138 223.949 324.122 223.665 328.353L223.348 328.206C222.921 326.307 221.852 320.446 221.138 319.181L220.206 318.922Z" fill="#F6EFE4"/>
<path d="M299.696 242.076L301.707 242.57C303.917 246.402 312.892 258.989 311.569 262.767C309.988 261.058 300.768 244.423 299.696 242.076Z" fill="#F6EFE4"/>
<path d="M296.591 243.417C296.989 243.409 298.081 243.197 298.519 243.124C300.031 251.065 301.987 259.615 303.839 267.506C300.585 260.898 296.476 250.913 296.591 243.417Z" fill="#F6EFE4"/>
<path d="M287.044 218.277C286.109 210.957 282.998 207.261 281.723 200.985C284.974 206.34 287.742 210.459 289.718 216.454C288.597 217.066 287.884 217.329 287.044 218.277Z" fill="#F6EFE4"/>
<path d="M308.759 238.738C314.707 240.092 319.71 241.006 325.251 243.534L327.129 244.381C320.873 243.405 313.667 241.343 307.523 241.338L308.759 238.738Z" fill="#F6EFE4"/>
<path d="M285.784 237.392C282.546 238.887 272.241 241.108 268.461 241.633C269.538 240.087 283.137 236.161 286.02 235.58L285.784 237.392Z" fill="#F6EFE4"/>
<path d="M288.64 240.706L289.543 242.429C283.674 246.326 283.186 246.237 276.1 247.74C279.901 245.43 284.724 242.871 288.64 240.706Z" fill="#F6EFE4"/>
<path d="M284.389 225.687C282.619 223.92 277.206 217.88 276.718 215.895C279.415 217.853 283.464 222.197 286.35 224.77L284.389 225.687Z" fill="#F6EFE4"/>
<path d="M803.01 572.845C805.99 546.71 810.94 522.225 820.17 497.558C821.97 492.745 824.18 485.163 827.4 481.381L828.48 480.905C831.21 482.98 826.155 500.29 825.385 504.425C824.195 510.665 823.245 516.945 822.54 523.26C820.55 540.345 819.615 558.025 819.01 575.22C818.705 583.81 817.835 595.685 818.035 604.095C825.735 576.925 833.005 552.115 846.2 526.9C848.24 523.005 850.84 516.145 853.935 513.24L854.865 513.19C856.905 516.255 851.05 533.67 850.345 538.42C846.04 567.4 836.23 595.1 830.4 623.64C841.695 603.765 854.495 585.7 870.53 569.33C872.925 566.89 879.835 558.1 883.4 559.73C883.915 563.425 876.3 571.945 873.69 576.88C858.03 606.42 843.155 636.365 829.085 666.695C834.635 661.04 861.785 634.37 868.04 635.94C868.385 636.495 869.07 637.14 868.485 637.825C855.4 653.24 843.275 668.475 831.245 684.87C822.795 696.39 803.125 718.605 802.02 733.3C801.37 741.98 801.885 755.37 801.885 764.23L801.86 828.21C801.795 836.76 802.21 845.385 801.915 853.905C801.715 859.625 788.75 857.945 784.43 857.945L759.25 857.91L711.865 857.925C702.255 857.94 692.545 858.075 682.95 857.765C679.885 857.665 668.675 857.595 667.62 854.455C669.64 850.795 677.105 851.03 680.78 851.075C688.8 851.175 696.81 851.235 704.835 851.245L762.82 851.23C773.325 851.235 785.565 851.505 796.005 851.135L796.02 768.115C796.03 757.66 796.82 726.455 794.5 718.225C788.25 696.095 771.755 668.12 755.2 651.82C752.755 649.41 745.24 643.45 744.99 641.205C747.93 638.73 751.295 641.695 754.125 643.32C766.86 650.665 775.07 662.865 784.56 673.585C779.545 659.875 775.82 645.045 771.455 630.985C767.135 617.055 762.57 602.88 758.755 588.81C758.175 586.675 758.13 586.465 758.775 584.735L759.545 584.185C761.625 584.895 772.11 602.275 774.43 605.33C781.315 614.38 783.765 626.605 788.415 636.475C784.075 597.985 779.67 557.045 772.575 519.01C771.97 515.75 768.845 508.74 770.065 505.925C770.735 505.71 770.89 505.43 771.47 505.93C774.655 508.675 776.04 512.69 777.99 516.505C787.66 535.4 792.7 556.595 796.47 577.375C796.465 577.605 796.465 577.835 796.465 578.065C797.865 584.395 798.375 589.505 799.435 595.75C799.59 596.9 799.785 597.33 800.165 598.44L800.685 598.135C801.675 593.18 801.045 588.51 802.08 583.9C801.95 580.72 802.61 576.035 803.01 572.845ZM807.34 574.945C806.63 579.97 806.24 585.135 805.785 590.2C803.68 618.155 803.385 641.68 805.48 669.77L806.695 662.7C807.435 659.75 808.27 652.24 809 648.51C809.075 645.81 810.05 641.54 810.44 638.705C814.79 607.27 813.4 575.295 816.185 543.65C816.82 536.4 817.45 528.055 817.445 520.86C812.74 536.14 808.755 559.09 807.34 574.945ZM801.2 681.92C798.79 653.405 799.835 626.895 795.28 597.64C794.055 589.01 792.625 580.41 791.005 571.845C788.595 560.03 785.27 543.485 779.92 532.84C785.095 563.95 786.95 595.825 791.685 626.985C794.11 642.925 794.98 667.515 801.2 681.92ZM771.12 665.3C774.71 671.275 779.575 678.18 783.285 684.27C786.07 688.845 793.795 707.135 795.645 708.695C793.56 697.17 781.335 671.855 772.05 665.855C771.745 665.66 771.435 665.475 771.12 665.3ZM846.435 656.51C834.7 666 823.61 677.77 817.42 691.71C816.59 693.585 814.375 697.1 814.75 699.11C817.795 694.89 846.255 658.27 846.435 656.51ZM845.06 540.935C842.295 545.795 839.475 553.32 837.315 558.62C824.115 591.045 819.035 623.895 811.495 657.555L809.735 668.68C808.65 674.86 807.03 682.195 806.73 688.34C811.4 672.025 816.54 656.03 821.73 639.89C822.755 636.705 823.685 632.205 824.31 628.875C827.69 610.875 833.27 593.48 837.73 575.755C840.51 564.225 842.955 552.61 845.06 540.935ZM768.295 604.33C770.045 612.545 775.125 627.585 777.74 636.17L796.01 695.925C797.115 699.475 798.04 702.465 798.695 706.15C799.085 708.34 799.155 712.9 800.22 714.355L800.835 713.87C801.265 709.56 801.635 706.265 802.435 702.025C798.53 696.835 797.145 682.88 795.29 675.59C791.7 661.495 777.94 612.63 768.295 604.33ZM864.895 582.44C857.385 590.21 851.695 599.06 845.505 607.805C824.15 637.965 815.19 673.465 805.63 708.515C805.51 708.955 805.685 709.685 805.775 710.155C814.735 688.775 824.355 665.9 833.895 644.905C837.105 637.835 864.745 585.43 864.895 582.44Z" fill="#F6EFE4"/>
<path d="M791.005 571.845C794.085 574.665 793.26 583.15 795.38 584.33C795.61 582.25 795.71 579.975 796.465 578.065C797.865 584.395 798.375 589.505 799.435 595.75C797.97 594.645 797.69 594.09 796.78 592.57C795.935 594.365 796.155 595.735 795.28 597.64C794.055 589.01 792.625 580.41 791.005 571.845Z" fill="#F6EFE4"/>
<path d="M803.01 572.845C804.955 574.515 804.92 575.07 807.34 574.945C806.63 579.97 806.24 585.135 805.785 590.2C804.505 590.255 804.81 590.245 803.53 589.995L802.94 589.05C802.96 587.06 803.245 585.43 802.08 583.9C801.95 580.72 802.61 576.035 803.01 572.845Z" fill="#F6EFE4"/>
<path d="M809 648.51C811.03 653.73 807.825 655.685 811.495 657.555L809.735 668.68C808.8 666.605 809.03 665.38 808.405 663.205L806.695 662.7C807.435 659.75 808.27 652.24 809 648.51Z" fill="#F6EFE4"/>
<path d="M667.215 430.199C690.89 431.079 686.95 424.634 698.15 446.664C702.745 455.769 707.395 464.844 712.1 473.891C711.595 460.705 709.585 444.452 711.885 431.604C712.21 429.786 734.885 429.512 737.265 431.705C737.935 434.979 737.825 457.249 737.72 461.581C737.285 479.827 738.235 499.454 737.5 517.535C734.985 517.7 732.17 517.615 729.625 517.6C723.955 517.475 712.305 519.46 709.225 514.27C700.885 500.24 694.465 484.66 686.27 470.584C687.185 483.989 687.25 504.325 686.855 517.71C681.335 518.105 666.46 518.36 661.34 517.37C660.615 509.99 660.47 433.092 661.63 431.251C663.47 430.22 665.08 430.336 667.215 430.199Z" fill="#F6EFE4"/>
<path d="M509.005 431.024C517.65 430.916 526.29 430.882 534.935 430.921C535.7 439.963 535.32 452.735 535.26 462.047L555.45 462.013C555.525 457.305 553.965 435.06 556.44 432.382C559.21 429.378 577.105 430.981 581.805 431.109C582.735 446.979 581.735 466.699 582.08 483.023C582.205 489.106 582.565 511.18 581.975 516.43C580.83 517.79 581.145 517.36 578.97 517.835C574.6 517.91 559.2 518.765 556.31 516.82C554.735 512.905 555.475 490.633 555.52 485.076C548.805 485.029 542.095 485.035 535.385 485.095C535.105 493.923 535.89 509.425 534.905 517.32C528.705 518.06 514.54 518.43 508.58 517.31C508.045 509.945 507.56 435.985 509.005 431.024Z" fill="#F6EFE4"/>
<path d="M296.265 430.98L321.874 430.945C328.804 430.935 335.162 430.532 342.112 431.932C360.48 435.635 367.02 452.187 363.398 469.112C361.707 477.016 356.852 480.932 350.306 484.935C354.05 492.526 362.569 510.08 365.126 517.6C360.354 518.025 355.165 517.96 350.345 518.005C346.903 518.05 343.472 517.94 340.031 517.86C336.138 509.88 331.717 498.44 328.1 489.936L320.932 489.969C321.085 499.099 321.123 508.23 321.045 517.36C315.384 518.08 301.659 518.46 296.188 517.335C295.287 496.623 296.4 475.18 295.978 454.392C295.836 447.388 295.608 437.845 296.265 430.98ZM321.499 470.004C326.874 470.099 331.816 470.8 336.33 467.661C345.537 454.427 331.38 451.794 321.03 452.176C321.239 457.998 321.575 464.208 321.499 470.004Z" fill="#F6EFE4"/>
<path d="M581.875 540.205C601.89 539.81 614.79 552.27 616.58 571.955C617.795 585.375 617.43 600.46 608.435 611.395C602.335 618.81 594.245 621.01 585.12 621.79C577.49 622.2 568.88 620.265 562.72 615.385C546.245 602.33 545.83 567.035 558.07 551.255C564.015 543.585 572.59 541.09 581.875 540.205ZM585.275 600.615C588.81 599.525 591.555 598.035 592.975 594.375C596.91 584.25 598.09 561.16 582.235 561.625C579.12 562.295 576.755 563.35 575.07 566.22C570.245 574.415 569.41 593.375 578.145 599.35C580.155 600.725 582.97 600.615 585.275 600.615Z" fill="#F6EFE4"/>
<path d="M468.355 428.726C478.715 429.163 484.924 429.825 494.988 432.81C495.095 440.402 494.631 449.428 494.392 457.065C489.384 456.191 462.755 448.349 461.036 456.593C465.647 468.791 502.145 463.019 500.55 491.749C499.193 516.21 481.732 519.92 461.375 519.925C454.009 519.855 441.933 517.615 434.989 515.645C434.966 507.2 434.993 498.757 435.069 490.312C445.121 491.129 455.792 495.456 466.255 494.944C469.204 494.8 474.497 493.532 473.117 489.888C470.961 484.193 457.051 483.604 451.847 481.166C447.959 479.345 445.155 478.881 441.88 475.833C432.475 467.939 432.115 447.27 440.265 438.422C448.044 429.976 457.628 429.235 468.355 428.726Z" fill="#F6EFE4"/>
<path d="M596.92 431.063C614.32 430.741 634.485 430.779 651.855 431.167C652.045 435.138 653.36 451.222 650.51 453.785C647.86 456.169 627.75 454.681 622.98 454.801C622.93 458.161 623.005 461.71 623.02 465.087C628.33 465.028 642.44 464.45 646.64 465.822C648.25 467.69 648.3 482.16 646.77 483.955C642.94 485.399 627.95 484.887 622.955 484.865C622.95 487.389 622.325 492.337 623.475 494.469C623.8 495.08 624.375 494.88 625.375 494.961C653.71 494.594 652.585 488.634 651.9 517.45C645.4 518 602.525 518.89 598.06 517.5C597.405 517.295 597.055 517.215 596.785 516.535C595.91 514.305 595.45 435.064 596.92 431.063Z" fill="#F6EFE4"/>
<path d="M372.621 431.076C389.626 430.669 409.627 430.809 426.653 431.094C426.693 431.443 426.729 431.793 426.759 432.143C427.089 436.442 428.645 450.742 425.439 453.664C422.782 456.086 402.927 454.723 398.057 454.892L398.049 465.047C405.992 464.997 413.935 465.01 421.878 465.086C424.027 491.213 420.5 484.233 397.971 484.926L398.044 494.362C400.705 496.173 421.788 493.198 425.959 495.696C426.611 496.875 427.134 499.259 427.001 500.555C426.693 503.56 427.818 514.98 425.998 516.96C419.09 519.62 396.838 516.96 388.062 518.005C384.956 518.375 375.334 517.885 372.258 517.295C371.637 509.31 371.283 435.781 372.621 431.076Z" fill="#F6EFE4"/>
<path d="M271.467 542.68C277.099 542.79 283.954 541.515 288.922 543.37C293.081 547.375 305.105 574.39 307.98 581.125C308.243 572.39 306.173 550.055 307.444 544.095C309.352 541.825 325.684 541.975 327.956 543.385C328.929 548.675 328.519 565.405 328.5 571.355L328.456 620.025L318.875 620.045C316.144 620.06 308.852 620.705 307.452 618.225C299.889 604.815 294.122 590.25 286.762 576.72C288.051 586.49 288.316 610.735 287.463 620.515C281.826 619.765 273.374 620.09 267.258 619.835C266.702 612.975 266.312 547.675 267.358 543.495C268.609 542.485 269.794 542.71 271.467 542.68Z" fill="#F6EFE4"/>
<path d="M453.587 542.49C463.547 541.93 484.486 541.725 493.811 543.48C515.095 547.495 520.495 579.865 499.858 591.005C504.02 599.89 509.165 610.425 512.445 619.61C508.26 620.09 503.39 619.995 499.125 620.02L490.728 619.955C487.242 611.54 483.865 603.085 480.598 594.585C478.589 594.63 476.428 594.55 474.406 594.51C474.504 598.64 475.103 616.7 473.693 619.235C470.931 620.16 456.752 620.255 453.735 619.255C452.689 615.13 452.439 546.395 453.587 542.49ZM474.677 576.885C479.264 576.985 484.011 577.46 487.975 574.83C491.037 570.605 492.662 565.66 487.34 562.25C483.32 559.675 479.116 560.02 474.567 560.09C474.581 565.265 474.437 571.82 474.677 576.885Z" fill="#F6EFE4"/>
<path d="M625.155 542.49C637.55 542.24 651.195 541.78 663.34 543.075C674.23 544.765 682.37 552.515 683.515 563.535C684.785 575.815 682.655 584.04 671.81 590.735C674.355 595.525 683.575 614.665 684.39 619.05C682.755 620.53 674.295 620.045 671.625 620.025L663.515 620C660.275 613.825 655.68 601.49 652.87 594.545C650.75 594.6 648.555 594.58 646.425 594.59C646.405 602.795 646.55 611.77 646.15 619.905C642.405 620.095 628.77 620.43 625.69 619.215C624.595 615.295 624.815 592.26 624.915 586.97C625.185 572.765 624.465 556.535 625.155 542.49ZM646.335 576.895C651.07 576.985 655.46 577.5 659.505 574.815C668.335 563.065 655.91 559.595 646.125 560.17C646.395 565.945 646.545 571.085 646.335 576.895Z" fill="#F6EFE4"/>
<path d="M789.685 384.583C783.78 345.137 765.74 303.919 743.065 271.506C671.695 167.485 537.73 124.093 418.484 164.588C399.054 171.186 381.889 178.989 363.938 188.912C362.479 189.718 360.228 190.239 358.539 189.937L358.131 189.113C359.598 184.694 369.726 179.558 374.007 177.158C406.196 159.113 443.658 148.675 480.217 144.673C555.465 136.644 630.85 158.575 690.05 205.718C734.225 240.653 767.34 287.63 785.395 340.975C788.605 350.467 793.945 369.247 795.025 379.221C795.575 381.988 796.31 385.215 796.76 387.957C795.23 390.187 794.88 390.358 792.48 391.646L790.81 391.265L789.685 384.583Z" fill="#F6EFE4"/>
<path d="M795.025 379.221C795.575 381.988 796.31 385.215 796.76 387.957C795.23 390.187 794.88 390.358 792.48 391.646L790.81 391.265L789.685 384.583C791.37 385.992 791.55 386.274 793.615 385.944C795.105 384.432 794.94 381.343 795.025 379.221Z" fill="#F6EFE4"/>
<path d="M187.959 428.073L189.405 428.798C190.403 430.126 190.812 431.248 190.822 432.949C190.902 445.91 190.884 459.111 190.894 472.055L190.923 551.935L190.921 745.75C190.916 780.53 190.404 816.56 191.046 851.245C243.381 852.005 295.994 850.215 348.325 851.645C350.739 851.71 352.377 852.085 354.139 853.71C351.866 856.945 348.861 857.26 345.099 857.44C325.829 858.365 305.968 857.955 286.678 857.93L185.531 857.975C184.796 852.71 185.009 844.755 185.012 839.225L185.023 810.525L185.025 709.985L185.022 534.755L185.011 476.306C185.01 461.141 183.727 442.587 187.959 428.073Z" fill="#F6EFE4"/>
<path d="M237.343 430.992C251.956 431.011 274.469 430.308 288.648 431.287C288.719 431.991 288.773 432.692 288.8 433.4C288.956 437.526 290.659 450.846 287.464 453.594C284.848 455.844 266.053 454.728 261.496 454.715L261.43 466.559C268.163 466.346 277.815 466.227 284.419 466.527C284.662 470.465 285.032 482.886 283.968 486.137C282.423 486.998 280.456 486.837 278.624 486.883C272.993 486.824 267.124 486.849 261.517 486.601C261.262 492.298 262.067 512.71 260.841 516.49C258.132 518.65 240.107 518.81 237.278 516.63C235.868 510.895 236.075 434.491 237.343 430.992Z" fill="#F6EFE4"/>
<path d="M712.28 541.145C721.87 540.365 731.51 541.63 740.575 544.855C740.465 551.02 739.97 557.62 739.825 563.99C735.715 562.795 710.235 554.125 710.775 564.765C710.925 567.725 716.33 569.99 718.895 570.86C729.44 574.44 743.41 577.21 744.11 591.01C745.44 611.875 737.115 619.85 716.905 621.675C707.205 622.295 699.33 621.12 690.065 618.115C690.025 610.825 689.935 603.575 690.205 596.285C696.655 597.495 723.755 608.075 724.32 595.295C721.74 589.555 704.38 587.875 697.285 582.985C685.44 574.81 687.225 554.64 697.655 546.18C701.455 543.1 707.17 541.885 712.28 541.145Z" fill="#F6EFE4"/>
<path d="M397.768 542.565C412.095 541.765 427.973 542.28 442.301 542.815C445.688 542.945 444.568 559.295 443.809 561.54C442.034 562.955 422.856 562.23 418.977 562.215L419.061 573.935C426.271 573.895 433.481 573.945 440.689 574.09C441.021 578.25 441.972 586.275 439.616 589.485C436.915 591.31 423.991 590.37 419.027 590.475L419.03 599.86C427.041 600.49 437.164 599.44 444.802 600.61C445.035 606.205 445.092 613.795 444.652 619.345C439.19 619.975 402.35 620.28 398.182 619.175C396.306 615.11 397.132 582.57 397.114 576.4C397.097 570.7 396.487 546.82 397.768 542.565Z" fill="#F6EFE4"/>
<path d="M336.487 542.52C347.06 542.545 357.632 542.515 368.205 542.435C373.519 542.405 384.031 542.055 388.918 543.075C389.772 544.21 389.849 545.355 389.894 546.81C390.376 562.08 392.078 565.13 373.996 562.535C373.2 576.045 373.54 594.605 373.762 608.375C373.786 612.305 373.64 615.95 373.466 619.88C368.995 619.9 355.989 620.61 353.081 618.855C351.657 614.51 352.344 570.78 352.247 562.915C341.136 562.725 334.751 566.815 335.922 551.96C336.176 548.735 335.637 545.88 336.487 542.52Z" fill="#F6EFE4"/>
<path d="M521.43 542.49C528.245 542.32 535.065 542.51 541.86 543.05C541.995 550.22 542.915 618 541.37 620.02C534.59 619.9 527.91 619.99 521.09 619.8C519.89 611.23 520.76 593.545 520.56 584.44C520.43 578.35 519.805 546.1 521.43 542.49Z" fill="#F6EFE4"/>
<path d="M236.934 542.545C241.108 542.48 252.936 541.855 256.277 543.29C257.248 546.25 257.014 552.32 257 555.62C256.919 575.645 256.901 595.67 257.034 615.695C257.043 617.105 256.975 618.7 256.132 619.86L254.625 620.065L236.014 619.99C235.678 615.795 235.402 599.795 235.712 596.23C236.379 588.55 234.66 546.155 236.934 542.545Z" fill="#F6EFE4"/>
<path d="M790.81 391.265L792.48 391.646C794.88 390.358 795.23 390.187 796.76 387.957C798.19 397.105 799.175 406.316 799.72 415.56C800.405 427.703 802.205 515.745 799.01 521.78L798.23 521.935C795.73 519.555 795.42 498.023 795.26 493.094C794.205 460.235 796.775 423.751 790.81 391.265Z" fill="#F6EFE4"/>
<path d="M438.323 803.885C444.626 805.94 458.571 805.15 454.909 816.785C454.131 819.26 451.059 820.65 448.856 821.54C449.694 824.87 451.12 828.815 452.227 832.135C450.389 831.82 448.465 831.65 446.604 831.445C445.523 827.925 444.98 824.41 443.78 820.675C436.831 818.65 441.435 824.805 438.425 828.8C436.896 828.97 436.69 828.73 435.27 828.14C433.914 826.065 437.626 807.94 438.323 803.885ZM440.902 815.785C443.839 816.26 446.951 816.945 449.878 816.745C450.793 815.01 451.126 814.695 450.896 812.725C448.983 809.525 445.489 809.745 442.004 809.38C441.662 811.435 441.333 813.77 440.902 815.785Z" fill="#F6EFE4"/>
<path d="M537.67 809.135C542.815 808.77 548.12 808.23 552.085 812.31C555.805 816.135 552.415 820.41 549.175 822.87C551.175 826.84 552.2 828.35 552.425 832.835L550.67 833.665C548.67 831.985 548.395 831.605 546.92 829.43C545.63 827.25 544.28 823.87 541.46 824.365C539.195 827.255 540.775 833.82 537.575 834.525L536.3 833.445C535.125 828.51 534.27 815.61 533.95 810.07C534.91 809.17 536.045 809.35 537.67 809.135ZM539.205 820.12C542.395 819.92 545.06 819.835 548.11 818.655C548.965 816.2 548.9 817.39 548.465 814.95C546.38 812.16 542.055 812.89 538.905 813.09L539.205 820.12Z" fill="#F6EFE4"/>
<path d="M284.187 724.5C287.83 726.66 294.42 733.28 294.672 737.575C295.059 744.14 289.025 744.48 284.517 744.755C283.605 745.755 281.297 752.435 280.638 754.17C278.859 753.12 278.484 753.01 277.215 751.45C276.726 749.855 277.062 749.435 277.662 747.865L280.869 741.455L276.951 738.195C275.512 740.15 272.942 744.29 270.812 744.845C269.467 743.92 269.052 743.825 268.32 742.375C270.598 737.69 280.103 728.445 284.187 724.5ZM280.029 735.25C282.434 737.3 284.505 739.275 287.273 740.79C288.83 739.95 289.005 740.01 289.957 738.475C290.7 734.935 287.296 732.44 284.886 730.35L280.029 735.25Z" fill="#F6EFE4"/>
<path d="M691.44 750.8C693.925 751.245 710.92 762.78 714.58 765.065L710.395 768.32C709.04 767.395 707.695 766.27 706.41 765.235L701.815 768.585L698.11 771.555C698.74 773.3 699.68 775.215 699.385 776.96C698.49 778.18 697.7 778.3 696.28 778.84L695.53 778.495C693.895 774.82 688.495 757.95 688.195 754.165C688.79 752.52 690.005 751.895 691.44 750.8ZM696.355 767.375L700.22 764.41L701.595 763.21C701.125 760.965 695.45 758.145 693.36 757.23C694.42 760.58 695.55 763.955 696.355 767.375Z" fill="#F6EFE4"/>
<path d="M676.46 763.56C681.61 763.41 685.995 766.86 684.295 772.285C682.77 777.145 679.84 778.55 675.84 780.96C677.535 783.155 680.095 785.845 680.31 788.46C679.405 790.395 679.565 789.845 677.385 791.18C673.725 786.31 666.655 775.75 663.97 770.535C668.095 767.56 671.47 764.64 676.46 763.56ZM669.77 771.545C670.745 773.055 672.32 775.73 673.545 776.875L674.695 776.77C678 774.895 678.75 774.785 680.075 771.36C679.72 768.675 678.025 767.715 675.375 767.855C673.56 769.04 671.52 770.305 669.77 771.545Z" fill="#F6EFE4"/>
<path d="M622.945 790.055L625.03 790.6C626.375 792.81 631.89 810.46 632.59 813.455L631.67 814.47C629.77 815.08 630.655 815.135 628.92 814.455C627.165 812.455 626.055 808.4 624.975 805.6C621.485 806.605 618.01 807.65 614.545 808.72C615.665 812.115 618.01 817.195 616.775 820.2C615.075 820.375 614.705 820.71 613.415 820.085C612.105 817.56 611.76 814.955 610.83 811.87C609.53 807.58 606.16 802.125 606.8 797.5C606.98 796.215 608 795.695 608.935 795.095L609.92 795.43C611.635 797.725 612.455 801.64 613.375 804.595C617.36 803.485 620.03 802.705 623.85 801.18C622.245 797.085 619.615 793.37 622.945 790.055Z" fill="#F6EFE4"/>
<path d="M653.18 776.12C655.41 776.09 659.1 775.835 660.23 777.97C659.995 779.66 660 779.555 659.135 781.045C656.765 781.965 656.975 780.67 654.245 780.49C652.68 780.375 651.135 780.91 649.98 781.97C648.885 782.955 648.405 783.995 648.395 785.38C652.62 788.29 665.815 781.59 667.97 789.69C669.925 797.045 662.705 800.7 656.56 802.045C653.4 801.76 649.8 801.3 649.36 797.63C651.725 795.635 655.585 797.33 659.22 797.435C661.92 796.21 663.795 794.89 663.64 791.66C658.965 785.635 647.335 798.32 644.305 787.32C642.565 781.01 647.785 777.54 653.18 776.12Z" fill="#F6EFE4"/>
<path d="M419.882 799.96C420.551 800.145 423.193 800.84 423.444 801.33C424.953 804.3 427.839 825.28 426.169 826.885C424.624 827.01 423.854 827.245 422.523 826.48C421.568 824.79 421.935 822.415 422.006 820.38L415.603 819.005C414.296 818.705 414.776 818.76 413.411 818.925C411.086 820.95 410.47 824.875 406.208 822.57C406.001 820.515 417.885 802.775 419.882 799.96ZM418.122 815.35L420.335 815.75C422.239 814.005 421.623 808.915 420.23 807.315C418.879 809.25 416.169 812.515 416.335 814.685C417.186 815.065 417.221 815.11 418.122 815.35Z" fill="#F6EFE4"/>
<path d="M589.92 800.085C593.39 799.695 598.665 799.74 600.805 802.885C600.425 804.55 600.485 804.44 599.28 805.645C594.745 806.96 595.12 801.105 586.865 806.895L586.81 808.56C589.56 810.955 602.305 808.245 604.3 815.045C606.14 821.33 601.38 823.815 596.325 825.45C592.31 826.06 586.42 826.13 585.33 821.145L586.18 820.46C591.095 819.475 599.935 824.355 600.35 816.865C596.44 812.61 578.94 818.28 583.065 805.65C584.095 802.495 587.165 801.395 589.92 800.085Z" fill="#F6EFE4"/>
<path d="M733.715 712.36C734.915 712.775 734.855 712.935 735.645 713.995C735.405 717.195 730.245 721.26 727.565 723.975L731.575 727.775C733.91 725.31 737.935 720.295 741.565 720.605L741.905 721.32C740.98 725.22 737.795 727.515 734.84 730.3C736.425 731.765 738.465 733.355 740.16 734.75C743.055 731.735 744.91 729.61 747.51 726.335C748.425 725.325 747.895 725.695 749.245 725.395C751 726.515 750.505 725.77 751.05 727.51C750.26 730.59 743.125 737.59 740.41 741.08C733.585 736.04 727.815 730.615 721.78 724.685C724.86 720.575 729.945 715.84 733.715 712.36Z" fill="#F6EFE4"/>
<path d="M573.21 804.12L575.055 804.16C576.235 805.115 575.865 805.11 576.17 807.11C574.505 809.32 567.89 809.63 564.57 810.17L565.105 816.315C568 815.795 574.06 814.075 576.125 816.765C574.67 819.755 568.51 819.85 565.585 820.165L566.275 827.27C569.585 826.58 572.575 826.24 575.93 825.83L578.635 825.395C588.35 829.025 562.275 831.98 562.235 831.99C561.965 824.71 560.295 814.055 559.415 806.475C564.015 805.715 568.615 804.93 573.21 804.12Z" fill="#F6EFE4"/>
<path d="M338.025 767.715C340.358 768.05 340.658 767.825 341.301 769.905C340.914 772.355 338.784 775.255 337.404 777.49C340.12 778.8 343.814 780.975 346.539 782.47C347.864 780.125 349.452 776.53 351.548 775.22C353.58 775.215 352.617 774.97 354.457 776.245C354.673 779.115 345.203 794.235 342.975 797.615C340.853 796.115 341.024 796.735 340.399 794.74C340.89 791.975 343.195 788.8 344.608 786.14C341.732 784.46 338.445 782.885 335.447 781.37C333.805 784.305 332.604 788.485 329.855 790.05C328.052 790.035 328.887 790.265 327.302 789.205C326.863 785.93 335.839 771.5 338.025 767.715Z" fill="#F6EFE4"/>
<path d="M374.423 785.515C378.755 785.54 386.154 788.14 386.991 792.85C386.68 794.25 386.446 794.23 385.351 795.25C380.991 796.365 381.657 790.265 376.265 789.485C374.643 790.195 374.624 790.485 373.585 791.91C374.406 795.19 394.079 808.905 374.785 811.37C373.576 811.185 372.386 810.885 371.232 810.48C367.098 809 359.225 801.365 366.472 799.72C368.63 800.95 368.961 804.26 370.665 805.8C372.79 807.72 376.473 807.9 378.259 805.535C378.12 800.2 359.294 791.845 374.423 785.515Z" fill="#F6EFE4"/>
<path d="M318.599 756.99C323.568 757.285 331.158 761.53 331.448 766.715C331.021 768.035 331.112 767.99 330.014 768.815C328.591 769.035 328.033 769.325 326.81 768.66C326.238 764.87 322.648 759.815 318.652 762.31C316.753 767.275 334.12 779.6 317.725 782.315C312.871 781.685 310.599 779.62 307.419 776.11C306.727 773.16 305.449 769.705 308.988 768.305C311.745 771.145 311.501 777.25 316.742 778.155C318.488 777.77 318.559 777.885 319.841 776.56C320.707 771.08 305.626 763.69 318.599 756.99Z" fill="#F6EFE4"/>
<path d="M301.45 741.255C303.488 741.715 314.743 749.91 312.141 753.05L310.74 753.15C308.042 751.95 304.972 748.725 302.539 746.595L298.659 751.265C300.493 752.62 305.161 755.62 305.911 757.285C305.286 759.205 305.805 758.415 304.293 759.75C301.252 759.94 299.634 755.825 296.305 754.685L295.607 755.37L291.95 759.45C294.725 761.425 300.204 764.74 301.158 767.705C300.872 769.09 300.686 769.075 299.718 770.165C296.969 769.685 288.316 761.68 286.104 759.39C288.953 755.195 297.733 745.545 301.45 741.255Z" fill="#F6EFE4"/>
<path d="M714.04 733.095C716.765 733.155 720.33 733.05 721.48 735.915C718.915 740.045 711.215 736.11 709.695 740.6C707.66 746.605 717.45 756.795 723.62 752.785C726.67 750.8 725.905 746.87 726.16 743.755C727.55 742.805 728.35 743.2 730.43 743.215C731.38 750.05 729.05 755.62 722.365 757.78C709.175 762.035 696.55 737.805 714.04 733.095Z" fill="#F6EFE4"/>
<path d="M511.095 810.095C515.195 810.26 525.33 809.225 527.68 810.295C530.08 816.06 519.06 814.485 516.015 814.455C515.875 816.78 515.415 818.73 516.7 820.42C518.59 820.96 519.25 820.87 521.255 820.87C524.105 820.725 524.12 820.23 526.025 821.47L526.595 822.77C525.83 824.64 526.405 823.865 524.725 825.115C523.125 825.195 522.37 825.155 520.805 825.055C520.03 825.035 518.395 825.09 517.74 825.03C513.35 824.635 517.675 831.72 514.915 835.04C513.3 835.345 513.4 835.275 511.855 834.635C511.605 834.28 511.36 833.925 511.11 833.57C511.265 826.415 511.16 816.94 511.095 810.095Z" fill="#F6EFE4"/>
<path d="M521.255 820.87C524.105 820.725 524.12 820.23 526.025 821.47L526.595 822.77C525.83 824.64 526.405 823.865 524.725 825.115C523.125 825.195 522.37 825.155 520.805 825.055C519.465 823.91 519.23 823.875 517.64 823.255L517.19 823.085L517.135 822.875C519.115 822.29 519.675 822.175 521.255 820.87Z" fill="#F6EFE4"/>
<path d="M269.041 707.795C271.965 709.14 278.137 717.115 278.249 720.74L277.64 721.375C274.409 720.775 271.468 716.695 269.26 714.175L264.844 717.76C266.79 719.915 269.881 722.49 270.938 724.92C270.769 726.645 270.769 726.13 269.11 727.695L268.123 727.77C266.093 726.245 263.2 722.8 261.405 720.8C259.346 722.9 256.746 726.045 254.015 726.745C252.787 726.375 252.591 725.815 251.796 724.76C252.046 722.105 265.531 711.265 269.041 707.795Z" fill="#F6EFE4"/>
<path d="M391.432 792.23C393.82 792.48 407.72 796.265 409.326 798.12C408.89 800.055 409.359 799.34 408.235 800.605C406.021 801.02 403.618 800.05 401.35 799.405L397.325 812.425C396.671 814.955 396.482 817.065 394.487 818.535C392.859 818.165 392.948 818.135 391.556 817.165C391.089 813.87 396.1 801.655 397.565 798.225C395.304 797.545 392.097 797.42 390.619 796.095C390.189 794.135 390.466 794.51 391.432 792.23Z" fill="#F6EFE4"/>
<path d="M461.14 807.86C465.683 808.515 478.419 808.19 480.541 811.545L480.282 812.66C478.366 814.07 474.679 813.22 472.262 812.9C472.001 817.14 471.704 821.38 471.37 825.615C470.944 828.385 471.591 831.52 469.766 833.325C467.782 833.155 467.584 833.475 466.244 832.48C466.118 828.815 467.761 817.1 468.272 812.87C466.097 812.655 463.746 812.955 461.904 812.05C460.728 810.2 461.135 810.475 461.14 807.86Z" fill="#F6EFE4"/>
<path d="M484.629 828.99C486.128 828.985 487.088 829.07 488.554 829.215C490.196 830.37 489.594 829.635 490.362 831.555C490.29 834.39 488.636 836.59 486.672 838.51C485.443 838.86 484.726 838.96 483.475 839.165L482.969 838.65C484.754 833.725 484.75 834.255 484.629 828.99Z" fill="#F6EFE4"/>
</svg>
